<?xml version="1.0" standalone="no"?>
<!DOCTYPE svg PUBLIC "-//W3C//DTD SVG 20010904//EN"
 "http://www.w3.org/TR/2001/REC-SVG-20010904/DTD/svg10.dtd">
<svg version="1.0" xmlns="http://www.w3.org/2000/svg"
 width="592.000000pt" height="592.000000pt" viewBox="0 0 592.000000 592.000000"
 preserveAspectRatio="xMidYMid meet">
<metadata>
Created by potrace 1.14, written by Peter Selinger 2001-2017
</metadata>
<g transform="translate(0.000000,592.000000) scale(0.100000,-0.100000)"
fill="#000000" stroke="none">
<path d="M2747 4293 c-1 0 -45 -4 -97 -7 -117 -7 -207 -17 -290 -31 -19 -3
-46 -8 -60 -10 -23 -3 -41 -7 -95 -19 -11 -3 -35 -10 -54 -15 -19 -6 -38 -8
-42 -5 -5 3 -9 1 -9 -3 0 -5 -8 -10 -17 -11 -21 -2 -57 -10 -60 -12 -2 -2 -7
-4 -13 -5 -5 -1 -12 -4 -15 -5 -3 -1 -9 -4 -15 -5 -5 -1 -11 -3 -12 -5 -2 -1
-10 -3 -19 -5 -18 -3 -127 -41 -169 -58 -14 -5 -29 -11 -35 -12 -5 -2 -51 -21
-101 -44 -51 -22 -97 -41 -103 -41 -6 0 -11 -4 -11 -10 0 -5 -18 -15 -40 -21
-22 -7 -40 -15 -40 -18 0 -3 -20 -15 -45 -26 -25 -11 -45 -23 -45 -27 0 -5 -6
-8 -14 -8 -8 0 -21 -6 -28 -12 -7 -7 -30 -22 -51 -32 -20 -11 -37 -23 -37 -28
0 -4 -5 -8 -10 -8 -19 0 -250 -169 -250 -182 0 -5 -4 -8 -8 -8 -30 0 -286
-259 -376 -380 -22 -30 -43 -57 -47 -60 -11 -10 -74 -105 -74 -113 0 -4 -5
-11 -11 -15 -5 -4 -30 -43 -54 -87 -23 -44 -47 -82 -52 -83 -4 -2 -6 -8 -2
-13 3 -5 -3 -21 -14 -37 -11 -15 -23 -37 -26 -49 -4 -13 -12 -23 -17 -23 -6 0
-8 -4 -4 -10 3 -5 1 -17 -4 -27 -14 -26 -21 -46 -40 -110 -6 -24 -16 -43 -21
-43 -5 0 -7 -9 -5 -20 2 -11 0 -20 -6 -20 -5 0 -8 -3 -7 -7 2 -10 -12 -83 -19
-103 -6 -16 -15 -73 -16 -102 -1 -10 -4 -18 -7 -18 -3 0 -6 -10 -6 -22 -5 -85
-12 -146 -18 -156 -4 -7 -2 -12 4 -12 6 0 8 -4 5 -10 -12 -20 -14 -50 -2 -50
7 0 6 -4 -3 -10 -11 -7 -11 -10 -2 -10 10 0 10 -5 2 -20 -6 -11 -7 -20 -3 -20
4 0 9 -30 10 -68 2 -59 8 -107 13 -107 2 0 10 -62 13 -97 1 -10 5 -18 9 -18 4
0 8 -13 8 -29 0 -17 4 -33 10 -36 5 -3 10 -16 10 -29 0 -12 6 -30 12 -39 11
-14 13 0 14 80 2 94 5 133 20 233 4 25 7 57 8 73 0 15 4 27 8 27 5 0 7 3 7 8
-1 4 0 12 1 17 1 6 3 15 4 20 10 52 20 93 27 106 4 9 11 31 14 50 3 18 11 39
17 46 6 7 7 13 3 13 -4 0 -3 6 3 13 6 6 10 14 10 17 1 8 22 62 40 100 9 19 17
37 18 40 4 23 36 80 45 80 5 0 7 5 4 10 -3 6 1 17 9 26 9 9 14 20 11 25 -4 5
-2 9 3 9 4 0 16 16 25 35 9 19 22 35 27 35 6 0 9 4 6 9 -3 5 1 14 9 21 8 7 15
19 15 26 0 8 4 14 9 14 5 0 12 8 15 18 4 10 14 27 24 38 10 10 28 34 42 53 28
41 64 82 141 162 31 33 54 61 51 64 -3 3 0 5 6 5 14 0 62 47 54 54 -3 3 0 6 6
6 6 0 22 10 35 23 47 44 89 77 100 77 6 0 8 3 4 6 -7 7 10 20 168 127 133 90
188 124 196 123 4 -1 15 6 25 15 25 21 243 129 260 129 8 0 14 4 14 8 0 4 10
8 22 9 11 1 24 6 27 10 3 4 11 9 16 10 26 5 81 29 87 38 4 6 8 7 8 3 0 -3 39
7 88 24 48 16 94 31 102 33 8 2 15 4 15 5 0 1 7 3 15 5 8 2 26 6 40 9 14 3 34
7 45 10 38 10 110 28 128 31 9 2 21 6 26 10 5 3 12 1 16 -5 4 -7 13 -5 26 4
11 7 28 12 39 9 10 -3 21 0 25 7 5 8 10 8 21 -1 8 -6 14 -7 14 -2 0 5 17 10
38 12 20 2 46 4 57 5 11 1 25 5 32 9 6 4 15 3 18 -3 4 -7 11 -8 18 -1 18 14
29 14 38 -1 6 -9 9 -9 9 -1 0 9 52 12 198 11 108 0 202 -4 207 -7 6 -4 24 -7
40 -7 17 1 33 -3 38 -9 4 -6 11 -4 17 5 6 9 10 10 10 3 0 -6 8 -12 18 -11 15
0 38 -3 116 -18 37 -6 150 -36 171 -44 11 -4 40 -14 65 -21 25 -7 51 -17 58
-22 6 -5 12 -7 12 -4 0 3 12 0 27 -8 15 -8 30 -12 35 -9 4 3 8 0 8 -5 0 -6 3
-10 8 -9 15 3 62 -15 62 -24 0 -5 5 -6 11 -3 5 4 18 0 27 -8 9 -9 29 -19 45
-22 15 -4 27 -11 27 -17 0 -5 4 -7 9 -4 5 3 14 -1 21 -9 7 -8 16 -12 21 -9 5
3 9 0 9 -5 0 -6 7 -11 15 -11 8 0 15 -4 15 -10 0 -5 6 -10 13 -10 7 0 23 -9
35 -20 12 -11 25 -20 29 -20 5 0 24 -13 43 -30 19 -16 41 -29 48 -30 7 0 10
-4 7 -10 -3 -5 -1 -10 5 -10 14 0 170 -156 170 -171 0 -5 5 -7 10 -4 6 3 10
-1 10 -9 0 -9 5 -16 10 -16 6 0 10 -7 10 -15 0 -8 4 -15 8 -15 9 0 99 -145
123 -201 10 -20 15 -40 11 -43 -3 -3 0 -6 6 -6 7 0 12 -9 12 -19 0 -11 5 -23
10 -26 6 -3 10 -15 10 -26 0 -10 4 -27 9 -37 17 -33 42 -136 46 -188 1 -17 5
-36 9 -42 4 -7 5 -12 2 -12 -3 0 -1 -12 4 -26 6 -15 6 -23 1 -19 -6 3 -7 -6
-2 -22 4 -16 5 -57 4 -93 -2 -36 -4 -84 -5 -107 -1 -24 -4 -43 -7 -43 -3 0 -7
-12 -8 -27 -7 -75 -10 -100 -15 -109 -2 -5 -10 -29 -17 -54 -17 -58 -31 -94
-35 -89 -2 2 -7 38 -10 79 -4 41 -9 93 -11 115 -2 22 -7 67 -10 100 -3 33 -8
78 -10 100 -2 22 -7 67 -10 100 -11 119 -22 168 -55 241 -69 154 -199 214
-450 209 -252 -5 -386 -71 -526 -258 -39 -53 -102 -171 -167 -317 -13 -30 -38
-84 -55 -120 -17 -36 -80 -174 -141 -308 -61 -133 -115 -250 -120 -260 -6 -9
-36 -75 -67 -145 -45 -100 -64 -132 -86 -143 -33 -17 -74 -9 -88 16 -5 10 -7
103 -5 216 3 109 7 296 10 414 2 118 7 334 10 480 3 146 8 291 10 323 3 31 2
58 -2 58 -5 1 -133 2 -285 3 l-276 1 -5 -30 c-2 -16 -5 -129 -6 -250 -2 -121
-4 -321 -6 -445 -2 -124 -4 -396 -5 -605 -1 -360 -1 -383 19 -445 45 -139 160
-236 319 -268 47 -9 274 -9 328 0 103 18 231 84 312 162 88 83 139 170 282
481 12 28 35 77 50 110 16 33 51 110 78 170 45 99 73 159 147 320 78 169 135
297 135 305 0 14 60 60 78 60 9 0 25 -7 34 -14 19 -14 21 -30 43 -301 3 -27 7
-75 10 -105 7 -76 13 -152 20 -240 6 -77 10 -122 20 -250 14 -162 16 -146 -29
-185 -23 -19 -45 -39 -51 -43 -53 -39 -101 -78 -103 -84 -2 -5 -10 -8 -17 -8
-7 0 -15 -4 -17 -8 -3 -10 -164 -118 -218 -148 -19 -10 -36 -22 -38 -26 -2 -5
-10 -8 -18 -8 -8 0 -14 -5 -14 -11 0 -5 -4 -7 -10 -4 -5 3 -10 1 -10 -4 0 -6
-3 -10 -7 -9 -11 2 -126 -55 -135 -67 -4 -5 -8 -6 -8 -1 0 5 -7 3 -15 -4 -8
-7 -15 -9 -15 -4 0 5 -4 4 -8 -3 -4 -6 -19 -14 -32 -16 -14 -3 -38 -12 -55
-21 -16 -9 -38 -16 -47 -16 -10 0 -18 -4 -18 -10 0 -5 -7 -7 -15 -4 -8 4 -15
1 -15 -6 0 -6 -4 -9 -8 -6 -5 3 -35 -3 -68 -13 -32 -10 -62 -18 -67 -19 -15
-2 -83 -15 -102 -19 -25 -5 -102 -14 -135 -17 -14 -1 -31 -5 -37 -9 -8 -5 -13
-4 -13 2 0 7 -8 7 -26 1 -16 -7 -23 -7 -19 0 4 7 -3 7 -19 0 -17 -6 -26 -6
-26 1 0 6 -7 6 -19 -1 -13 -7 -22 -7 -26 0 -4 7 -12 7 -24 0 -10 -5 -21 -6
-25 -2 -4 3 -24 7 -44 8 -63 2 -97 8 -104 19 -5 6 -8 5 -8 -3 0 -7 -5 -10 -11
-6 -6 4 -25 8 -43 11 -53 7 -61 9 -76 18 -8 5 -24 8 -34 6 -10 -1 -28 2 -40 7
-12 5 -39 15 -61 22 -22 7 -51 17 -65 23 -14 6 -31 11 -38 13 -41 8 -272 145
-280 166 -2 4 -10 8 -18 8 -9 0 -12 5 -9 10 3 6 0 10 -7 10 -17 0 -174 167
-170 181 1 5 -2 9 -7 9 -9 0 -86 118 -86 132 0 4 -6 13 -13 20 -6 6 -12 20
-12 30 0 10 -4 18 -10 18 -5 0 -10 8 -10 18 0 10 -5 23 -12 30 -7 7 -9 12 -6
12 4 0 1 15 -7 34 -8 18 -17 49 -20 67 -3 19 -8 41 -11 50 -17 58 -24 318 -9
389 3 19 7 45 8 58 0 12 4 22 7 22 3 0 7 8 8 18 2 18 9 53 12 62 1 3 2 8 1 13
0 4 3 7 7 7 5 0 9 7 10 15 1 8 3 22 4 30 1 8 4 15 8 15 4 0 7 6 7 13 0 20 75
177 85 177 5 0 7 4 4 9 -3 5 1 14 9 21 8 7 12 16 9 21 -3 5 0 9 5 9 6 0 11 7
11 15 0 8 5 15 10 15 6 0 10 6 10 14 0 8 7 17 16 20 8 3 12 10 9 16 -3 5 -1
10 4 10 6 0 11 5 11 10 0 6 8 18 18 29 27 30 52 64 52 74 0 4 5 5 10 2 6 -3
10 -1 10 5 0 19 194 220 213 220 4 0 5 5 2 10 -3 6 -2 10 3 10 5 0 18 8 30 18
100 82 197 152 212 152 4 0 10 4 12 8 4 9 89 60 102 60 5 0 12 4 15 9 10 15
149 82 155 76 3 -4 6 -1 6 5 0 7 5 12 10 12 6 0 27 7 48 17 20 9 40 17 45 18
4 2 9 4 12 5 3 1 8 3 13 4 4 1 21 6 37 13 70 27 76 28 113 37 9 3 17 5 17 6 0
3 39 11 62 13 13 1 23 5 23 8 0 4 19 9 43 13 46 8 69 12 107 21 37 8 109 16
157 18 24 1 43 4 43 7 0 3 30 5 68 5 37 0 70 4 74 10 5 7 8 7 8 0 0 -6 37 -9
93 -9 50 1 96 -1 102 -4 5 -3 16 -7 25 -9 8 -1 29 -4 46 -7 17 -3 42 -9 55
-14 13 -5 30 -7 37 -5 6 3 12 1 12 -4 0 -5 14 -10 32 -11 17 -2 38 -7 45 -13
7 -6 19 -9 27 -6 7 3 22 0 32 -8 11 -7 23 -13 27 -13 11 0 67 -21 91 -34 13
-7 17 -6 14 3 -2 7 -20 22 -39 32 -19 11 -37 24 -41 31 -4 6 -8 7 -8 2 0 -5
-8 -2 -17 6 -10 8 -33 20 -50 28 -18 7 -33 16 -33 21 0 5 -7 9 -15 9 -8 0 -29
8 -47 18 -29 17 -187 81 -213 87 -5 1 -17 5 -25 8 -8 4 -24 8 -35 10 -11 1
-26 6 -32 10 -7 5 -17 5 -23 2 -5 -3 -10 -2 -10 4 0 6 -7 8 -15 5 -8 -4 -15
-2 -15 3 0 5 -8 9 -17 9 -10 1 -38 5 -63 9 -25 5 -55 9 -67 10 -13 1 -26 4
-29 8 -3 3 -12 3 -19 1 -7 -3 -16 -1 -19 5 -5 7 -15 7 -31 1 -14 -5 -25 -6
-25 -2 0 4 -21 7 -48 7 -26 0 -57 3 -68 7 -12 4 -27 1 -33 -5 -7 -7 -11 -7
-11 -1 0 12 -29 12 -48 0 -6 -4 -12 -3 -12 2 0 6 -8 8 -17 6 -10 -2 -52 -5
-94 -7 -42 -3 -82 -8 -88 -11 -6 -4 -11 -2 -11 5 0 8 -4 8 -12 2 -7 -6 -22 -9
-33 -7 -11 1 -23 -2 -27 -9 -6 -9 -8 -9 -8 1 0 8 -5 10 -12 5 -7 -4 -24 -8
-38 -10 -14 -1 -41 -5 -60 -8 -19 -4 -46 -8 -60 -10 -14 -2 -25 -4 -25 -5 0
-1 -11 -3 -25 -6 -14 -2 -36 -7 -50 -10 -14 -3 -26 -6 -27 -6 -1 0 -23 -6 -49
-14 -25 -7 -50 -11 -55 -8 -5 3 -9 1 -9 -3 0 -8 -129 -49 -142 -45 -5 1 -8 -2
-8 -6 0 -5 -7 -9 -15 -9 -14 0 -66 -19 -130 -49 -16 -7 -42 -16 -57 -20 -16
-3 -28 -11 -28 -17 0 -6 -3 -7 -6 -4 -4 3 -16 1 -28 -5 -11 -7 -27 -13 -35
-14 -8 -2 -17 -8 -21 -14 -4 -7 -9 -11 -11 -10 -7 3 -124 -55 -154 -77 -17
-11 -34 -21 -40 -22 -5 0 -66 -37 -135 -82 -69 -45 -126 -80 -127 -78 0 2 -15
-11 -32 -28 -17 -18 -34 -33 -37 -33 -3 0 -11 -6 -18 -12 -7 -7 -35 -31 -62
-53 -27 -22 -72 -63 -101 -92 -28 -28 -54 -49 -57 -46 -3 4 -6 2 -6 -4 0 -9
-42 -60 -100 -122 -14 -15 -38 -45 -54 -66 -17 -22 -35 -43 -40 -47 -6 -4 -7
-8 -3 -8 4 0 -8 -21 -27 -46 -19 -25 -41 -59 -48 -75 -7 -16 -17 -29 -21 -29
-5 0 -5 -4 -2 -10 3 -5 2 -10 -4 -10 -10 0 -81 -140 -81 -159 0 -6 -4 -11 -9
-11 -5 0 -12 -7 -15 -16 -4 -10 -2 -13 7 -8 6 4 3 -2 -7 -14 -11 -12 -16 -22
-12 -22 3 0 0 -13 -8 -29 -9 -16 -12 -31 -9 -35 4 -3 1 -6 -5 -6 -7 0 -11 -3
-10 -7 2 -8 -18 -87 -29 -113 -7 -18 -11 -36 -18 -75 -2 -16 -7 -41 -9 -55 -3
-13 -8 -58 -11 -99 -3 -41 -7 -77 -10 -79 -2 -3 0 -13 5 -23 7 -12 7 -20 0
-24 -6 -4 -8 -11 -4 -16 3 -6 8 -36 10 -67 4 -52 10 -97 14 -97 1 0 3 -13 5
-30 2 -16 11 -54 20 -82 9 -29 18 -58 19 -65 2 -7 8 -26 14 -41 7 -16 12 -34
12 -42 0 -7 3 -15 8 -17 4 -1 23 -34 42 -73 19 -38 38 -71 43 -73 4 -2 7 -10
7 -18 0 -8 4 -14 8 -14 5 0 15 -12 23 -27 16 -29 43 -63 106 -132 24 -25 43
-50 43 -54 0 -5 4 -5 10 -2 5 3 10 -2 10 -11 0 -10 3 -15 6 -12 3 3 23 -10 44
-31 43 -40 98 -83 114 -91 20 -9 101 -65 107 -73 3 -5 8 -8 10 -7 2 0 42 -17
89 -38 88 -41 116 -53 138 -59 6 -1 18 -5 25 -6 6 -2 26 -9 42 -16 58 -24 110
-41 128 -41 9 0 17 -4 17 -9 0 -5 11 -9 25 -10 47 -3 55 -4 55 -12 0 -4 8 -6
18 -4 9 1 22 0 27 -3 6 -4 19 -7 30 -7 11 0 25 -3 30 -6 6 -3 17 -5 25 -4 8 0
18 -4 22 -10 5 -6 8 -5 8 3 0 8 5 10 13 5 6 -4 28 -8 47 -10 19 -1 55 -5 80
-8 70 -8 297 -8 380 0 41 4 86 8 100 9 14 1 31 5 38 9 7 5 12 3 12 -5 0 -8 3
-9 8 -2 4 5 17 10 30 11 12 0 23 2 25 3 1 1 16 4 32 6 46 8 70 12 70 14 0 1
14 4 30 6 17 3 44 9 62 15 17 5 43 12 57 15 14 2 38 9 53 16 16 6 33 12 38 13
43 7 75 19 75 27 0 5 4 7 9 4 9 -6 135 40 211 76 25 12 50 22 55 23 17 2 70
29 77 40 4 5 8 7 8 3 0 -3 19 4 43 17 23 13 62 34 87 46 25 12 62 33 83 47 22
13 60 35 85 49 26 14 49 29 52 32 8 9 89 61 95 61 4 0 12 6 19 13 8 6 24 19
36 27 34 23 85 64 88 73 2 4 8 7 13 7 5 0 26 18 48 40 21 22 41 37 45 33 3 -3
6 -2 6 4 0 6 29 41 65 78 36 38 65 72 65 77 0 4 4 8 9 8 5 0 8 -13 7 -29 -1
-20 -19 -45 -63 -87 -99 -96 -141 -132 -147 -126 -3 3 -6 0 -6 -6 0 -6 -28
-32 -62 -59 -35 -26 -64 -51 -66 -55 -2 -4 -10 -8 -18 -8 -8 0 -14 -4 -14 -10
0 -5 -7 -10 -15 -10 -8 0 -15 -5 -15 -11 0 -5 -4 -8 -8 -5 -5 3 -9 -1 -9 -9 0
-8 4 -15 9 -15 4 0 8 4 8 10 0 5 15 16 33 25 17 8 46 25 62 37 17 13 73 54
125 93 116 85 114 84 151 117 37 35 47 35 55 1 12 -56 17 -69 40 -119 50 -104
169 -191 294 -214 90 -17 259 -11 365 14 127 29 273 132 352 248 48 68 73 123
125 273 28 77 76 214 108 305 32 91 137 388 233 660 96 272 177 506 178 520
l4 25 -277 0 -278 0 -86 -250 c-86 -251 -157 -460 -319 -935 -48 -140 -94
-269 -102 -287 -20 -43 -73 -62 -108 -39 -14 9 -25 24 -25 34 0 9 -4 55 -9
102 -5 47 -12 117 -16 155 -3 39 -9 85 -11 103 -4 21 1 47 12 70 10 20 19 39
20 42 0 3 8 21 16 40 27 62 31 75 29 84 -1 4 2 13 7 20 5 6 15 29 22 51 7 22
18 54 25 70 33 76 67 200 70 255 0 8 3 20 6 25 4 6 5 18 4 28 -2 9 0 17 3 17
4 0 8 24 9 53 7 165 7 247 0 247 -4 0 -3 8 2 19 6 10 8 21 5 24 -5 5 -15 58
-16 87 0 8 -5 21 -11 28 -6 8 -6 12 3 12 9 0 9 4 -1 17 -8 9 -13 19 -12 22 4
8 -8 74 -15 86 -3 5 -7 16 -8 25 -3 21 -39 119 -47 127 -4 3 -7 15 -7 25 0 10
-5 18 -10 18 -6 0 -9 3 -9 8 3 12 -25 72 -33 72 -4 0 -8 9 -8 20 0 11 -3 20
-8 20 -4 0 -18 20 -31 45 -13 25 -28 45 -32 45 -5 0 -9 7 -9 15 0 8 -4 15 -10
15 -5 0 -10 6 -10 14 0 8 -3 16 -7 18 -5 2 -21 19 -36 38 -36 44 -157 170
-163 170 -2 0 -17 11 -32 24 -61 55 -78 69 -104 84 -16 9 -28 20 -28 24 0 4
-4 8 -9 8 -6 0 -30 14 -54 30 -25 17 -50 30 -57 30 -6 0 -9 4 -6 9 3 4 -13 14
-34 21 -22 7 -40 16 -40 20 0 7 -92 46 -102 43 -5 -2 -8 1 -8 6 0 5 -15 13
-32 16 -18 4 -39 12 -45 17 -7 6 -13 7 -13 3 0 -4 -7 -1 -17 6 -9 8 -18 13
-19 12 -4 -3 -23 3 -89 28 -27 10 -57 20 -65 21 -8 2 -17 5 -20 8 -4 5 -107
40 -135 46 -82 18 -109 24 -145 29 -14 1 -25 4 -25 5 0 3 -61 11 -97 12 -21 1
-38 4 -38 7 0 3 -30 7 -68 8 -180 6 -274 8 -275 6z"/>
<path d="M3616 913 c-6 -14 -5 -15 5 -6 7 7 10 15 7 18 -3 3 -9 -2 -12 -12z"/>
</g>
</svg>
